<?xml version="1.0" encoding="utf-8"?>
<!-- Generator: Adobe Illustrator 17.0.0, SVG Export Plug-In . SVG Version: 6.00 Build 0)  -->
<!DOCTYPE svg PUBLIC "-//W3C//DTD SVG 1.1//EN" "http://www.w3.org/Graphics/SVG/1.1/DTD/svg11.dtd">
<svg version="1.1" id="Layer_1" xmlns="http://www.w3.org/2000/svg" xmlns:xlink="http://www.w3.org/1999/xlink" x="0px" y="0px"
	 width="237.73px" height="237.846px" viewBox="0 0 237.73 237.846" enable-background="new 0 0 237.73 237.846"
	 xml:space="preserve">
<g>
	<line fill="#F1F6FF" x1="185.465" y1="105.991" x2="135.166" y2="105.991"/>
	<line fill="#F1F6FF" x1="101.823" y1="105.991" x2="51.217" y2="105.991"/>
	<path fill="#F1F6FF" d="M176.447,75.446c-2.166,7.183-5.672,14.145-0.15,20.348l27.423,30.806
		c5.522,6.203,14.624,7.196,20.229,2.207c5.604-4.989,5.672-14.145,0.15-20.348l-37.844-41.227
		C180.732,61.029,178.294,69.319,176.447,75.446z"/>
	<g>
		<polygon fill="#F1F6FF" points="24.377,131.488 24.377,131.488 24.377,131.488 		"/>
		<polygon fill="#F1F6FF" points="24.377,131.488 75.611,131.397 75.611,131.155 		"/>
		<path fill="#F1F6FF" d="M214.462,130.951v-25.776h-79.551c0.045,0.354,0.076,0.711,0.076,1.074
			c0,6.525-7.453,11.814-16.647,11.814s-16.647-5.289-16.647-11.814c0-0.363,0.031-0.72,0.076-1.074H51.753l8.985-9.944
			c5.698-6.306,2.08-13.384-0.155-20.687c-1.907-6.229-4.422-14.657-10.12-8.351l-39.051,41.913
			c-5.698,6.306-5.628,15.615,0.155,20.687c3.491,3.062,8.295,3.892,12.81,2.695h0c0.564-0.15,1.124-0.324,1.675-0.537h49.866v0.445
			l-0.308,0.001v50.926h83.042v-30.966h1.036v-20.111l50.477-0.09h-50.477v-0.204H214.462z"/>
	</g>
	<path fill="#87A5B6" d="M153.245,42.885c1.678-17.615-6.336-23.291-6.336-23.291s2.516-5.033-2.516-12.582
		c-12.485-18.727-58.716,11.743-59.555,17.615s-1.401,17.184-1.401,17.184l6.434-1.247c0,0,5.033-16.776,9.227-16.776
		c4.194,0,30.197,11.743,36.908,11.743c6.71,0,5.872-12.582,8.388-6.71c1.927,4.496,3.355,11.743,3.355,11.743L153.245,42.885z"/>
	<g>
		<path fill="none" stroke="#81A1BC" stroke-width="2" stroke-miterlimit="10" d="M135.061,93.689v9.786
			c0,8.304-6.794,15.099-15.099,15.099h-3.355c-8.304,0-15.099-6.794-15.099-15.099L101.411,94"/>
		<path fill="none" stroke="#81A1BC" stroke-width="2" stroke-miterlimit="10" d="M146.264,85.307
			c-4.866,5.91-12.695,10.199-20.902,10.199h-14.155c-8.191,0-15.43-4.616-20.296-10.506"/>
	</g>
	
		<line fill="none" stroke="#81A1BC" stroke-width="2" stroke-miterlimit="10" x1="185.465" y1="105.991" x2="135.166" y2="105.991"/>
	<polyline fill="none" stroke="#81A1BC" stroke-width="2" stroke-miterlimit="10" points="24.368,131.488 75.611,131.155 
		75.611,182.323 158.653,182.323 158.653,131.155 210.166,131.155 	"/>
	<line fill="none" stroke="#81A1BC" stroke-width="2" stroke-miterlimit="10" x1="101.823" y1="105.991" x2="51.217" y2="105.991"/>
	<path fill="none" stroke="#81A1BC" stroke-width="2" stroke-miterlimit="10" d="M60.583,74.545
		c2.236,7.303,5.853,14.381,0.155,20.687L32.441,126.55c-5.698,6.306-15.091,7.315-20.874,2.244
		c-5.783-5.072-5.853-14.381-0.155-20.687l39.051-41.913C56.161,59.888,58.677,68.316,60.583,74.545z"/>
	<path fill="none" stroke="#81A1BC" stroke-width="2" stroke-miterlimit="10" d="M176.447,75.446
		c-2.166,7.183-5.672,14.145-0.15,20.348l27.423,30.806c5.522,6.203,14.624,7.196,20.229,2.207
		c5.604-4.989,5.672-14.145,0.15-20.348l-37.844-41.227C180.732,61.029,178.294,69.319,176.447,75.446z"/>
	<path fill="none" stroke="#81A1BC" stroke-width="2" stroke-miterlimit="10" d="M59.813,72.299c0,0,9.087-8.248,14.959-21.669
		s26.003-10.066,27.681-7.549c1.678,2.516,0.28,3.215,0.28,3.215"/>
	<path fill="none" stroke="#81A1BC" stroke-width="2" stroke-miterlimit="10" d="M63.728,85.441c0,0,4.334-3.775,6.85-3.775
		c2.516,0,24.623,7.722,31.334-0.666"/>
	<path fill="none" stroke="#81A1BC" stroke-width="2" stroke-miterlimit="10" d="M177.093,72.299c0,0-9.087-8.248-14.959-21.669
		c-5.872-13.421-26.003-10.066-27.681-7.549c-1.678,2.516-0.28,3.215-0.28,3.215"/>
	<path fill="none" stroke="#81A1BC" stroke-width="2" stroke-miterlimit="10" d="M173.179,85.441c0,0-4.334-3.775-6.85-3.775
		s-24.094,7.734-30.804-0.654"/>
	<path fill="none" stroke="#81A1BC" stroke-width="2" stroke-miterlimit="10" d="M89.87,40.564c0,0,5.033-16.776,9.227-16.776
		c4.194,0,30.197,11.743,36.908,11.743c6.71,0,5.872-12.582,8.388-6.71c1.927,4.496,3.355,11.743,3.355,11.743"/>
	<path fill="none" stroke="#81A1BC" stroke-width="2" stroke-miterlimit="10" d="M83.974,42.348c0,0,0.025-11.85,0.864-17.721
		s47.07-36.342,59.555-17.615c5.033,7.549,2.516,12.582,2.516,12.582s8.551,5.139,6.873,22.754"/>
	<g>
		<g>
			<circle fill="#D6E6F4" stroke="#0090E7" stroke-width="2" stroke-miterlimit="10" cx="137.997" cy="63.632" r="10.904"/>
			
				<circle fill="none" stroke="#0090E7" stroke-width="2" stroke-linecap="round" stroke-linejoin="round" stroke-miterlimit="10" cx="137.997" cy="63.632" r="17.615"/>
		</g>
		<g>
			<circle fill="#D6E6F4" stroke="#0090E7" stroke-width="2" stroke-miterlimit="10" cx="98.573" cy="63.632" r="10.904"/>
			
				<circle fill="none" stroke="#0090E7" stroke-width="2" stroke-linecap="round" stroke-linejoin="round" stroke-miterlimit="10" cx="98.573" cy="63.632" r="17.615"/>
		</g>
		<g>
			
				<line fill="none" stroke="#0090E7" stroke-width="2" stroke-linecap="round" stroke-linejoin="round" stroke-miterlimit="10" x1="114.93" y1="56.502" x2="121.64" y2="56.502"/>
			
				<line fill="none" stroke="#0090E7" stroke-width="2" stroke-linecap="round" stroke-linejoin="round" stroke-miterlimit="10" x1="116.728" y1="66.647" x2="120.524" y2="66.573"/>
		</g>
	</g>
</g>
<g>
	<g>
		<path fill="#FFFFFF" d="M150.059,219.452c0,2.329-1.905,4.234-4.234,4.234H91.766c-2.329,0-4.234-1.905-4.234-4.234v-46.365
			c0-2.329,1.905-4.234,4.234-4.234h54.059c2.329,0,4.234,1.905,4.234,4.234V219.452z"/>
		<path fill="none" stroke="#81A1BC" stroke-width="2" stroke-miterlimit="10" d="M150.059,219.452c0,2.329-1.905,4.234-4.234,4.234
			H91.766c-2.329,0-4.234-1.905-4.234-4.234v-46.365c0-2.329,1.905-4.234,4.234-4.234h54.059c2.329,0,4.234,1.905,4.234,4.234
			V219.452z"/>
	</g>
	
		<line fill="none" stroke="#D6E6F4" stroke-width="2" stroke-linecap="round" stroke-miterlimit="10" x1="97.398" y1="214.87" x2="123.174" y2="214.87"/>
	
		<line fill="none" stroke="#D6E6F4" stroke-width="2" stroke-linecap="round" stroke-miterlimit="10" x1="107.064" y1="180.502" x2="122.1" y2="180.502"/>
	
		<line fill="none" stroke="#D6E6F4" stroke-width="2" stroke-linecap="round" stroke-miterlimit="10" x1="107.064" y1="191.242" x2="122.1" y2="191.242"/>
	
		<line fill="none" stroke="#D6E6F4" stroke-width="2" stroke-linecap="round" stroke-miterlimit="10" x1="107.064" y1="200.908" x2="123.174" y2="200.908"/>
</g>
<g>
	<g>
		<path fill="#FFFFFF" d="M193.19,232.613c0,2.329-1.905,4.234-4.234,4.234h-54.059c-2.329,0-4.234-1.905-4.234-4.234v-46.365
			c0-2.329,1.905-4.234,4.234-4.234h54.059c2.329,0,4.234,1.905,4.234,4.234V232.613z"/>
		<path fill="none" stroke="#81A1BC" stroke-width="2" stroke-miterlimit="10" d="M193.19,232.613c0,2.329-1.905,4.234-4.234,4.234
			h-54.059c-2.329,0-4.234-1.905-4.234-4.234v-46.365c0-2.329,1.905-4.234,4.234-4.234h54.059c2.329,0,4.234,1.905,4.234,4.234
			V232.613z"/>
	</g>
	
		<line fill="none" stroke="#D6E6F4" stroke-width="2" stroke-linecap="round" stroke-miterlimit="10" x1="140.358" y1="203.502" x2="167.207" y2="203.502"/>
	
		<line fill="none" stroke="#D6E6F4" stroke-width="2" stroke-linecap="round" stroke-miterlimit="10" x1="140.358" y1="194.911" x2="167.207" y2="194.911"/>
	<rect x="140.358" y="211.02" fill="#D6E6F4" width="12.888" height="17.184"/>
</g>
<g>
	<g>
		<path fill="#FFFFFF" d="M99.179,230.408c0,2.329-1.905,4.234-4.234,4.234H40.886c-2.329,0-4.234-1.905-4.234-4.234v-46.365
			c0-2.329,1.905-4.234,4.234-4.234h54.059c2.329,0,4.234,1.905,4.234,4.234V230.408z"/>
		<path fill="none" stroke="#81A1BC" stroke-width="2" stroke-miterlimit="10" d="M99.179,230.408c0,2.329-1.905,4.234-4.234,4.234
			H40.886c-2.329,0-4.234-1.905-4.234-4.234v-46.365c0-2.329,1.905-4.234,4.234-4.234h54.059c2.329,0,4.234,1.905,4.234,4.234
			V230.408z"/>
	</g>
	
		<line fill="none" stroke="#D6E6F4" stroke-width="2" stroke-linecap="round" stroke-miterlimit="10" x1="51.291" y1="222" x2="87.807" y2="222"/>
	
		<line fill="none" stroke="#D6E6F4" stroke-width="2" stroke-linecap="round" stroke-miterlimit="10" x1="70.623" y1="195.502" x2="86.733" y2="195.502"/>
	
		<line fill="none" stroke="#D6E6F4" stroke-width="2" stroke-linecap="round" stroke-miterlimit="10" x1="70.623" y1="207.316" x2="85.659" y2="207.316"/>
</g>
<g>
	<g>
		<path fill="#FFFFFF" d="M63.527,206.043c0,2.329-1.905,4.234-4.234,4.234H5.234c-2.329,0-4.234-1.905-4.234-4.234v-46.365
			c0-2.329,1.905-4.234,4.234-4.234h54.059c2.329,0,4.234,1.905,4.234,4.234V206.043z"/>
		<path fill="none" stroke="#81A1BC" stroke-width="2" stroke-miterlimit="10" d="M63.527,206.043c0,2.329-1.905,4.234-4.234,4.234
			H5.234c-2.329,0-4.234-1.905-4.234-4.234v-46.365c0-2.329,1.905-4.234,4.234-4.234h54.059c2.329,0,4.234,1.905,4.234,4.234
			V206.043z"/>
	</g>
	
		<line fill="none" stroke="#D6E6F4" stroke-width="2" stroke-linecap="round" stroke-miterlimit="10" x1="41.551" y1="183.13" x2="53.365" y2="183.13"/>
	
		<line fill="none" stroke="#D6E6F4" stroke-width="2" stroke-linecap="round" stroke-miterlimit="10" x1="41.551" y1="175.612" x2="53.365" y2="175.612"/>
	
		<line fill="none" stroke="#D6E6F4" stroke-width="2" stroke-linecap="round" stroke-miterlimit="10" x1="10.515" y1="201.388" x2="54.011" y2="201.388"/>
	
		<line fill="none" stroke="#D6E6F4" stroke-width="2" stroke-linecap="round" stroke-miterlimit="10" x1="10.515" y1="193.87" x2="54.011" y2="193.87"/>
	<circle fill="#FFFFFF" stroke="#81A1BC" stroke-width="2" stroke-miterlimit="10" cx="21.146" cy="173.464" r="12.888"/>
</g>
<g>
	<g>
		<path fill="#FFFFFF" d="M236.73,205.34c0,2.329-1.905,4.234-4.234,4.234h-54.059c-2.329,0-4.234-1.905-4.234-4.234v-46.365
			c0-2.329,1.905-4.234,4.234-4.234h54.059c2.329,0,4.234,1.905,4.234,4.234V205.34z"/>
		<path fill="none" stroke="#81A1BC" stroke-width="2" stroke-miterlimit="10" d="M236.73,205.34c0,2.329-1.905,4.234-4.234,4.234
			h-54.059c-2.329,0-4.234-1.905-4.234-4.234v-46.365c0-2.329,1.905-4.234,4.234-4.234h54.059c2.329,0,4.234,1.905,4.234,4.234
			V205.34z"/>
	</g>
	
		<line fill="none" stroke="#D6E6F4" stroke-width="2" stroke-linecap="round" stroke-miterlimit="10" x1="183.667" y1="184.908" x2="229.572" y2="184.908"/>
	
		<line fill="none" stroke="#D6E6F4" stroke-width="2" stroke-linecap="round" stroke-miterlimit="10" x1="182.317" y1="193.5" x2="228.222" y2="193.5"/>
	<g>
		<polygon fill="#81A1BC" points="186.645,164.968 187.982,167.677 190.973,168.112 188.809,170.221 189.32,173.2 186.645,171.794 
			183.97,173.2 184.481,170.221 182.317,168.112 185.307,167.677 		"/>
		<polygon fill="#81A1BC" points="196.743,164.968 198.081,167.677 201.071,168.112 198.907,170.221 199.418,173.2 196.743,171.794 
			194.068,173.2 194.579,170.221 192.415,168.112 195.406,167.677 		"/>
		<polygon fill="#81A1BC" points="206.842,164.968 208.179,167.677 211.17,168.112 209.006,170.221 209.517,173.2 206.842,171.794 
			204.167,173.2 204.678,170.221 202.514,168.112 205.504,167.677 		"/>
		<polygon fill="#81A1BC" points="216.941,164.968 218.278,167.677 221.268,168.112 219.104,170.221 219.615,173.2 216.941,171.794 
			214.266,173.2 214.777,170.221 212.613,168.112 215.603,167.677 		"/>
		<polygon fill="#81A1BC" points="226.318,164.968 227.655,167.677 230.646,168.112 228.482,170.221 228.993,173.2 226.318,171.794 
			223.643,173.2 224.154,170.221 221.99,168.112 224.98,167.677 		"/>
	</g>
</g>
</svg>
